<svg width="89" height="24" viewBox="0 0 89 24" fill="none" xmlns="http://www.w3.org/2000/svg">
<path d="M12.0001 3.5C10.3539 3.49993 8.74312 3.97789 7.36337 4.87582C5.98363 5.77375 4.89432 7.05302 4.22775 8.55822C3.56118 10.0634 3.34603 11.7298 3.60845 13.355C3.87087 14.9801 4.59955 16.4941 5.70599 17.713C6.81244 18.9319 8.24902 19.8033 9.84126 20.2214C11.4335 20.6394 13.1129 20.5861 14.6754 20.0679C16.2379 19.5497 17.6163 18.589 18.6432 17.3023C19.6701 16.0157 20.3013 14.4585 20.4601 12.82C20.4692 12.7221 20.4491 12.6238 20.4026 12.5372C20.356 12.4506 20.285 12.3797 20.1983 12.3333C20.1117 12.2869 20.0133 12.267 19.9154 12.2762C19.8176 12.2854 19.7246 12.3232 19.6481 12.385C19.1313 12.8032 18.5363 13.1141 17.898 13.2996C17.2596 13.4851 16.5906 13.5414 15.9302 13.4652C15.2698 13.3891 14.6312 13.182 14.0517 12.8561C13.4723 12.5302 12.9637 12.0921 12.5556 11.5672C12.1476 11.0424 11.8483 10.4415 11.6752 9.79962C11.5022 9.15775 11.4589 8.48782 11.5479 7.82901C11.6368 7.1702 11.8563 6.53575 12.1934 5.96277C12.5305 5.38978 12.9785 4.88978 13.5111 4.492C13.5902 4.43295 13.65 4.35183 13.683 4.25886C13.716 4.1659 13.7208 4.06523 13.6968 3.96955C13.6727 3.87386 13.6209 3.78743 13.5478 3.72114C13.4747 3.65485 13.3837 3.61166 13.2861 3.597C12.8605 3.53239 12.4306 3.49996 12.0001 3.5Z" fill="#47B2B8"/>
<path d="M33.98 17.5V7H36.23V17.5H33.98ZM27.365 17.5V7H29.615V17.5H27.365ZM28.265 13.285L28.28 11.245H35.135V13.285H28.265ZM41.0366 17.65C40.3766 17.65 39.7816 17.47 39.2516 17.11C38.7216 16.75 38.3016 16.26 37.9916 15.64C37.6816 15.02 37.5266 14.31 37.5266 13.51C37.5266 12.71 37.6816 12.005 37.9916 11.395C38.3116 10.775 38.7416 10.29 39.2816 9.94C39.8216 9.58 40.4366 9.4 41.1266 9.4C41.5166 9.4 41.8716 9.46 42.1916 9.58C42.5216 9.69 42.8066 9.845 43.0466 10.045C43.2966 10.245 43.5066 10.475 43.6766 10.735C43.8466 10.995 43.9666 11.275 44.0366 11.575L43.5866 11.5V9.565H45.7016V17.5H43.5566V15.595L44.0366 15.55C43.9566 15.83 43.8266 16.095 43.6466 16.345C43.4666 16.595 43.2416 16.82 42.9716 17.02C42.7116 17.21 42.4166 17.365 42.0866 17.485C41.7566 17.595 41.4066 17.65 41.0366 17.65ZM41.6216 15.805C42.0216 15.805 42.3716 15.71 42.6716 15.52C42.9716 15.33 43.2016 15.065 43.3616 14.725C43.5316 14.375 43.6166 13.97 43.6166 13.51C43.6166 13.06 43.5316 12.665 43.3616 12.325C43.2016 11.985 42.9716 11.72 42.6716 11.53C42.3716 11.33 42.0216 11.23 41.6216 11.23C41.2316 11.23 40.8866 11.33 40.5866 11.53C40.2966 11.72 40.0666 11.985 39.8966 12.325C39.7266 12.665 39.6416 13.06 39.6416 13.51C39.6416 13.97 39.7266 14.375 39.8966 14.725C40.0666 15.065 40.2966 15.33 40.5866 15.52C40.8866 15.71 41.2316 15.805 41.6216 15.805ZM50.3421 17.65C49.6521 17.65 49.0321 17.475 48.4821 17.125C47.9321 16.765 47.4971 16.28 47.1771 15.67C46.8671 15.05 46.7121 14.335 46.7121 13.525C46.7121 12.735 46.8671 12.03 47.1771 11.41C47.4971 10.79 47.9271 10.3 48.4671 9.94C49.0171 9.58 49.6421 9.4 50.3421 9.4C50.7121 9.4 51.0671 9.46 51.4071 9.58C51.7571 9.69 52.0671 9.845 52.3371 10.045C52.6171 10.245 52.8421 10.47 53.0121 10.72C53.1821 10.96 53.2771 11.215 53.2971 11.485L52.7571 11.575V6.4H54.8871V17.5H52.8771L52.7871 15.67L53.2071 15.715C53.1871 15.965 53.0971 16.205 52.9371 16.435C52.7771 16.665 52.5621 16.875 52.2921 17.065C52.0321 17.245 51.7321 17.39 51.3921 17.5C51.0621 17.6 50.7121 17.65 50.3421 17.65ZM50.8221 15.88C51.2221 15.88 51.5721 15.78 51.8721 15.58C52.1721 15.38 52.4071 15.105 52.5771 14.755C52.7471 14.405 52.8321 13.995 52.8321 13.525C52.8321 13.065 52.7471 12.66 52.5771 12.31C52.4071 11.95 52.1721 11.675 51.8721 11.485C51.5721 11.285 51.2221 11.185 50.8221 11.185C50.4221 11.185 50.0721 11.285 49.7721 11.485C49.4821 11.675 49.2521 11.95 49.0821 12.31C48.9221 12.66 48.8421 13.065 48.8421 13.525C48.8421 13.995 48.9221 14.405 49.0821 14.755C49.2521 15.105 49.4821 15.38 49.7721 15.58C50.0721 15.78 50.4221 15.88 50.8221 15.88ZM56.5436 17.5V9.565H58.6736V17.5H56.5436ZM57.5936 7.93C57.1836 7.93 56.8636 7.83 56.6336 7.63C56.4036 7.43 56.2886 7.145 56.2886 6.775C56.2886 6.435 56.4036 6.16 56.6336 5.95C56.8736 5.73 57.1936 5.62 57.5936 5.62C58.0036 5.62 58.3236 5.725 58.5536 5.935C58.7836 6.135 58.8986 6.415 58.8986 6.775C58.8986 7.125 58.7786 7.405 58.5386 7.615C58.3086 7.825 57.9936 7.93 57.5936 7.93ZM63.0186 17.65C62.2786 17.65 61.6186 17.53 61.0386 17.29C60.4686 17.04 60.0086 16.7 59.6586 16.27L60.9786 15.13C61.2886 15.46 61.6336 15.7 62.0136 15.85C62.3936 15.99 62.7736 16.06 63.1536 16.06C63.3036 16.06 63.4386 16.045 63.5586 16.015C63.6886 15.975 63.7986 15.925 63.8886 15.865C63.9786 15.795 64.0436 15.715 64.0836 15.625C64.1336 15.525 64.1586 15.42 64.1586 15.31C64.1586 15.09 64.0686 14.915 63.8886 14.785C63.7886 14.735 63.6336 14.675 63.4236 14.605C63.2136 14.525 62.9436 14.44 62.6136 14.35C62.1036 14.22 61.6686 14.07 61.3086 13.9C60.9586 13.72 60.6786 13.52 60.4686 13.3C60.2886 13.09 60.1486 12.865 60.0486 12.625C59.9586 12.375 59.9136 12.1 59.9136 11.8C59.9136 11.44 59.9936 11.115 60.1536 10.825C60.3136 10.525 60.5336 10.27 60.8136 10.06C61.1036 9.85 61.4336 9.69 61.8036 9.58C62.1736 9.46 62.5636 9.4 62.9736 9.4C63.3836 9.4 63.7836 9.45 64.1736 9.55C64.5636 9.65 64.9236 9.795 65.2536 9.985C65.5936 10.165 65.8886 10.38 66.1386 10.63L64.9986 11.89C64.8186 11.72 64.6136 11.565 64.3836 11.425C64.1636 11.285 63.9336 11.175 63.6936 11.095C63.4536 11.015 63.2386 10.975 63.0486 10.975C62.8786 10.975 62.7236 10.99 62.5836 11.02C62.4536 11.05 62.3436 11.095 62.2536 11.155C62.1636 11.215 62.0936 11.295 62.0436 11.395C62.0036 11.485 61.9836 11.585 61.9836 11.695C61.9836 11.805 62.0086 11.91 62.0586 12.01C62.1186 12.11 62.1986 12.195 62.2986 12.265C62.4086 12.325 62.5686 12.395 62.7786 12.475C62.9986 12.555 63.2936 12.645 63.6636 12.745C64.1436 12.875 64.5486 13.02 64.8786 13.18C65.2186 13.34 65.4886 13.525 65.6886 13.735C65.8586 13.915 65.9836 14.12 66.0636 14.35C66.1436 14.58 66.1836 14.835 66.1836 15.115C66.1836 15.605 66.0436 16.045 65.7636 16.435C65.4936 16.815 65.1186 17.115 64.6386 17.335C64.1586 17.545 63.6186 17.65 63.0186 17.65ZM67.8671 17.5V7.555H69.9971V17.5H67.8671ZM66.3821 11.47V9.565H71.6171V11.47H66.3821ZM73.2004 17.665C72.8104 17.665 72.5104 17.555 72.3004 17.335C72.0904 17.115 71.9854 16.8 71.9854 16.39C71.9854 16.02 72.0954 15.72 72.3154 15.49C72.5454 15.25 72.8404 15.13 73.2004 15.13C73.5804 15.13 73.8754 15.24 74.0854 15.46C74.2954 15.68 74.4004 15.99 74.4004 16.39C74.4004 16.77 74.2904 17.08 74.0704 17.32C73.8504 17.55 73.5604 17.665 73.2004 17.665ZM78.4815 17.65C77.8215 17.65 77.2265 17.47 76.6965 17.11C76.1665 16.75 75.7465 16.26 75.4365 15.64C75.1265 15.02 74.9715 14.31 74.9715 13.51C74.9715 12.71 75.1265 12.005 75.4365 11.395C75.7565 10.775 76.1865 10.29 76.7265 9.94C77.2665 9.58 77.8815 9.4 78.5715 9.4C78.9615 9.4 79.3165 9.46 79.6365 9.58C79.9665 9.69 80.2515 9.845 80.4915 10.045C80.7415 10.245 80.9515 10.475 81.1215 10.735C81.2915 10.995 81.4115 11.275 81.4815 11.575L81.0315 11.5V9.565H83.1465V17.5H81.0015V15.595L81.4815 15.55C81.4015 15.83 81.2715 16.095 81.0915 16.345C80.9115 16.595 80.6865 16.82 80.4165 17.02C80.1565 17.21 79.8615 17.365 79.5315 17.485C79.2015 17.595 78.8515 17.65 78.4815 17.65ZM79.0665 15.805C79.4665 15.805 79.8165 15.71 80.1165 15.52C80.4165 15.33 80.6465 15.065 80.8065 14.725C80.9765 14.375 81.0615 13.97 81.0615 13.51C81.0615 13.06 80.9765 12.665 80.8065 12.325C80.6465 11.985 80.4165 11.72 80.1165 11.53C79.8165 11.33 79.4665 11.23 79.0665 11.23C78.6765 11.23 78.3315 11.33 78.0315 11.53C77.7415 11.72 77.5115 11.985 77.3415 12.325C77.1715 12.665 77.0865 13.06 77.0865 13.51C77.0865 13.97 77.1715 14.375 77.3415 14.725C77.5115 15.065 77.7415 15.33 78.0315 15.52C78.3315 15.71 78.6765 15.805 79.0665 15.805ZM84.862 17.5V9.565H86.992V17.5H84.862ZM85.912 7.93C85.502 7.93 85.182 7.83 84.952 7.63C84.722 7.43 84.607 7.145 84.607 6.775C84.607 6.435 84.722 6.16 84.952 5.95C85.192 5.73 85.512 5.62 85.912 5.62C86.322 5.62 86.642 5.725 86.872 5.935C87.102 6.135 87.217 6.415 87.217 6.775C87.217 7.125 87.097 7.405 86.857 7.615C86.627 7.825 86.312 7.93 85.912 7.93Z" fill="white"/>
</svg>
